PathFileType	4	(X/Y/Z)	/Users/mathieubourgeois/Desktop/Analyse/Traitement/Sujet_06/Data/Transformed_Sujet_06_velo100.trc
DataRate	CameraRate	NumFrames	NumMarkers	Units	OrigDataRate	OrigDataStartFrame	OrigNumFrames
120.000000	120.000000	4	36	mm	120.000000	1398	1864
Frame#	Time	RFHD			RANE			STRN			LANI			LKNE			T10			RHUM			RWRB			C7			LFWT			LTOE			RTOE			LWRA			LBWT			RBWT			RFWT			LKNI			RKNI			RKNE			LANE			RANI			LHEE			RHEE			LHUM			LRAD			RRAD			RWRA			LWRB			LFHD			LBHD			RBHD			RSHO			LSHO			CLAV			LCAR			RCAR			
		X1	Y1	Z1	X2	Y2	Z2	X3	Y3	Z3	X4	Y4	Z4	X5	Y5	Z5	X6	Y6	Z6	X7	Y7	Z7	X8	Y8	Z8	X9	Y9	Z9	X10	Y10	Z10	X11	Y11	Z11	X12	Y12	Z12	X13	Y13	Z13	X14	Y14	Z14	X15	Y15	Z15	X16	Y16	Z16	X17	Y17	Z17	X18	Y18	Z18	X19	Y19	Z19	X20	Y20	Z20	X21	Y21	Z21	X22	Y22	Z22	X23	Y23	Z23	X24	Y24	Z24	X25	Y25	Z25	X26	Y26	Z26	X27	Y27	Z27	X28	Y28	Z28	X29	Y29	Z29	X30	Y30	Z30	X31	Y31	Z31	X32	Y32	Z32	X33	Y33	Z33	X34	Y34	Z34	X35	Y35	Z35	X36	Y36	Z36	

1399	11.65	275.9351196289062	1374.087890625	126.8512420654296	20.19045639038083	277.5191345214844	201.0378265380859	-13.26279449462891	1195.342041015625	62.21298980712884	-115.690559387207	569.0715942382812	-44.71935653686528	126.1337890625	852.9165649414062	-138.9075927734375	-186.4655303955078	1346.325317382812	64.11210632324207	191.5061798095703	1122.607788085938	252.7118225097656	390.6856384277344	1024.646362304688	179.1103210449219	51.59885025024413	1456.096313476562	68.57228851318351	-163.8685455322266	1111.552368164062	-53.58142852783212	-44.8561325073242	415.9277954101562	-126.9804840087891	190.9479827880859	191.7056427001953	177.9685516357422	404.981689453125	1026.658569335938	-128.5605773925781	-324.3077697753906	1141.348266601562	0.7971358299254275	-318.9814758300781	1136.019409179688	110.4796676635741	-161.289291381836	1101.33740234375	159.3119049072265	138.5271759033203	806.4599609375	-44.49018096923832	52.55673217773436	642.7254638671875	96.29033660888668	29.20234870910642	691.5753173828125	190.2339324951172	-142.723892211914	581.28955078125	-123.9878845214844	44.92605209350585	282.3447265625	123.0876007080078	-189.4352722167969	603.783203125	-79.84235382080085	-37.22503662109377	267.908203125	159.66455078125	182.8071441650391	1117.796997070312	-194.621566772461	218.6938629150391	1163.07763671875	-225.9938507080079	234.5235900878906	1153.524536132812	298.6165161132812	432.3460693359375	1037.0810546875	229.5003662109375	429.4364624023438	1028.241455078125	-187.3717041015625	274.7962951660156	1375.149047851562	-16.74263381958013	196.4386138916016	1503.428100585938	-14.04762458801276	199.7586212158203	1521.274658203125	113.4880599975585	74.24532318115232	1417.610961914062	202.6237792968749	70.15945434570314	1415.26611328125	-77.36630249023445	70.38061523437499	1318.598876953125	61.72541809082024	480.9213562011719	1048.761962890625	-108.6072769165039	493.2096862792969	1041.777587890625	143.7923126220703	
1400	11.65833333333333	276.0046691894531	1374.578002929688	125.0320892333984	10.64679145812986	271.2858581542969	201.7195129394531	-13.42718696594239	1195.3388671875	61.1479187011718	-108.5399551391602	577.4027099609375	-43.83803176879888	130.2541046142578	863.3593139648438	-137.6155242919922	-186.5628509521484	1346.213256835938	64.04167938232411	191.7716522216797	1122.992309570312	252.9578399658203	390.7408447265625	1024.6591796875	179.4492950439453	51.36464309692382	1456.15087890625	67.02122497558585	-163.7064208984375	1111.440063476562	-53.48450851440439	-31.27583122253417	427.6299438476562	-127.1227416992188	178.3799743652343	179.6085052490234	178.2965240478516	404.9843444824219	1027.035766601562	-128.3930358886719	-324.35986328125	1141.22509765625	1.179419398307691	-318.7921752929688	1135.803466796875	110.8328781127929	-161.1871948242188	1101.06298828125	159.3444213867187	144.8871002197266	819.4978637695312	-43.91447830200199	44.60498809814452	636.450927734375	97.94683074951168	22.10999488830564	685.4729614257812	191.95849609375	-135.3203582763672	588.9893798828125	-123.1984024047852	35.96165466308592	276.0623474121094	123.876335144043	-182.8709259033203	609.680908203125	-79.05784606933601	-46.66912841796877	263.3720397949219	159.9681396484375	182.9019927978516	1118.160278320312	-194.8408813476563	218.7808532714844	1163.39501953125	-226.318832397461	234.9765319824218	1154.271850585938	298.57763671875	432.447265625	1037.14501953125	229.7792663574219	429.564453125	1028.606079101562	-187.1672821044922	274.5802612304688	1375.258544921875	-18.58100318908697	196.0305480957031	1503.393432617188	-16.02470207214362	199.5524749755859	1521.573974609375	111.4459533691406	74.640022277832	1417.916625976562	200.9643402099609	69.30376434326173	1415.36767578125	-78.62865447998054	70.17062377929686	1318.5390625	60.30768966674798	480.9776916503906	1048.907348632812	-108.2937164306641	493.222412109375	1041.717163085938	144.0275726318359	
1401	11.66666666666667	276.1346435546875	1374.989135742188	123.1919250488281	0.6663570404052487	266.2725219726562	202.4464874267578	-13.66886520385743	1195.294921875	60.1578063964843	-99.83104705810547	583.4576416015625	-42.90968322753911	134.1865539550782	873.4111938476562	-135.9125366210938	-186.6431884765625	1346.166381835938	63.89866638183583	191.8272552490234	1123.32373046875	253.2361602783203	390.6524353027344	1024.660034179688	179.7270660400391	51.19535064697265	1456.213745117188	65.54966735839835	-163.5657348632812	1111.357055664062	-53.40398025512705	-16.8356418609619	438.06884765625	-127.5067520141602	165.3232269287109	168.6345672607422	178.3672790527344	404.9212951660156	1027.438842773438	-128.2376098632812	-324.4464721679688	1141.215698242188	1.390718698501477	-318.71435546875	1135.729614257812	110.9870834350585	-161.2909088134766	1100.928466796875	159.4255218505859	146.6088256835938	827.424072265625	-40.18323135375979	37.63466262817381	631.5234375	99.47927093505855	15.56016635894773	680.3796997070312	193.587905883789	-127.2437896728515	595.064697265625	-122.1911697387696	26.52649879455565	270.8819274902344	124.6434707641601	-175.4497985839844	613.7576293945312	-78.07938385009773	-56.63107681274416	260.1380310058594	160.349136352539	182.9359741210938	1118.365112304688	-195.3541107177735	218.8731231689453	1163.63623046875	-226.7769165039063	235.1456604003906	1154.826538085938	298.5201721191406	432.4207458496094	1037.05517578125	230.0588989257812	429.6592712402344	1028.932861328125	-187.0064392089844	274.3445739746094	1375.451904296875	-20.44624710083013	195.6016693115234	1503.455322265625	-17.92619323730476	199.4052429199219	1521.869140625	109.5079803466796	74.86983489990232	1418.155029296875	199.5331726074218	68.57153320312501	1415.376098632812	-79.87275695800788	69.97653198242186	1318.447631835938	58.96813964843743	480.9698181152344	1049.053833007812	-108.009521484375	493.107421875	1041.719116210938	144.3209991455078	
1402	11.675	276.2977294921875	1375.439453125	121.3580017089843	-9.936240196228052	262.4026794433594	203.1876831054687	-13.93848705291749	1195.274536132812	59.19441223144524	-90.18784332275391	588.11083984375	-41.51219177246099	137.6802520751953	882.9839477539062	-133.9918060302735	-186.7308807373047	1346.192260742188	63.58107376098622	191.7257843017578	1123.593627929688	253.3248291015625	390.4676513671875	1024.61962890625	179.9924774169922	51.05898666381835	1456.245483398438	64.15962982177726	-163.4093933105469	1111.380493164062	-53.3312644958497	-1.758575677871688	447.3920288085938	-128.116683959961	151.3205871582031	158.9008636474609	178.28857421875	404.84326171875	1027.724243164062	-128.18701171875	-324.570556640625	1141.320678710938	1.372979521751294	-318.8012390136719	1135.783813476562	110.9887008666991	-161.6036987304688	1100.969360351562	159.5409698486327	157.4275665283203	838.6763305664062	-40.93373489379886	31.20964431762694	627.7059936523438	100.8254623413086	9.684217453002907	676.307373046875	195.0092468261718	-118.3656921386719	599.6144409179688	-121.0868377685547	16.27176284790038	266.7728881835938	125.5354919433594	-167.2621002197266	616.1223754882812	-76.78362274169928	-67.1406936645508	258.1198425292969	160.854507446289	182.9626159667969	1118.418823242188	-196.1368255615235	218.9019012451172	1163.7109375	-227.4421081542969	235.1171722412109	1155.275634765625	298.3927001953125	432.266845703125	1036.990356445312	230.3474273681641	429.7371826171875	1029.16943359375	-186.8905487060547	274.1098327636719	1375.67236328125	-22.26380538940435	195.1667633056641	1503.572509765625	-19.73627471923835	199.2774658203125	1522.12939453125	107.6635208129882	75.01418304443357	1418.339477539062	198.2466888427734	68.00718688964845	1415.245971679688	-81.12546539306648	69.75553894042969	1318.3525390625	57.74155044555657	480.9178771972656	1049.183837890625	-107.8153305053711	492.9301452636719	1041.7626953125	144.628173828125	
